<?xml version="1.0" standalone="no"?>
<!DOCTYPE svg PUBLIC "-//W3C//DTD SVG 20010904//EN"
 "http://www.w3.org/TR/2001/REC-SVG-20010904/DTD/svg10.dtd">
<svg version="1.0" xmlns="http://www.w3.org/2000/svg"
 width="964.000000pt" height="964.000000pt" viewBox="0 0 964.000000 964.000000"
 preserveAspectRatio="xMidYMid meet">
<metadata>
Created by potrace 1.14, written by Peter Selinger 2001-2017
</metadata>
<g transform="translate(0.000000,964.000000) scale(0.100000,-0.100000)"
fill="#000000" stroke="none">
<path d="M0 4820 l0 -1700 4820 0 4820 0 0 1700 0 1700 -4820 0 -4820 0 0
-1700z m7530 1344 c112 -47 172 -182 137 -305 -68 -231 -396 -241 -482 -15
-12 31 -16 63 -13 103 14 182 188 287 358 217z m-5290 -1344 l0 -1280 -930 0
-930 0 0 1280 0 1280 930 0 930 0 0 -1280z m6102 807 c42 -24 59 -47 159 -215
62 -103 130 -214 151 -246 41 -64 46 -92 23 -136 -21 -42 -53 -60 -103 -60
-60 0 -81 24 -226 263 l-119 197 -145 0 c-111 0 -143 -3 -139 -12 3 -7 58
-128 122 -268 l117 -255 33 -311 c18 -172 38 -321 44 -333 6 -11 20 -25 31
-31 11 -6 130 -10 309 -10 l290 0 106 -122 105 -123 -502 -3 c-542 -2 -527 -4
-562 51 -8 12 -38 150 -66 307 -28 156 -52 285 -53 287 -2 1 -113 -248 -248
-555 l-246 -557 -153 -3 c-120 -2 -151 0 -147 10 59 138 507 1266 507 1276 0
16 -222 451 -231 452 -3 0 -66 -71 -140 -158 l-134 -159 -155 -5 c-182 -6
-213 2 -244 65 -16 34 -17 44 -7 78 20 65 53 79 193 79 l117 0 117 168 c64 92
128 180 143 195 61 66 193 136 296 157 22 5 191 8 375 7 l335 -2 47 -28z
m-4682 -547 l0 -120 1350 0 1350 0 0 -190 0 -190 -1350 0 -1350 0 0 -120 c0
-66 -3 -120 -7 -120 -14 0 -943 424 -943 430 0 7 918 427 938 429 9 1 12 -29
12 -119z"/>
</g>
</svg>
